<?xml version="1.0" encoding="utf-8"?>
<!-- Generator: Adobe Illustrator 16.0.0, SVG Export Plug-In . SVG Version: 6.00 Build 0)  -->
<!DOCTYPE svg PUBLIC "-//W3C//DTD SVG 1.0//EN" "http://www.w3.org/TR/2001/REC-SVG-20010904/DTD/svg10.dtd">
<svg version="1.0" id="Layer_1" xmlns="http://www.w3.org/2000/svg" xmlns:xlink="http://www.w3.org/1999/xlink" x="0px" y="0px"
	 width="72px" height="72px" viewBox="0 0 72 72" enable-background="new 0 0 72 72" xml:space="preserve">
<circle fill="none" stroke="#00984C" stroke-width="1.25" stroke-linecap="round" stroke-miterlimit="10" cx="37.057" cy="35.157" r="18.808"/>
<circle fill="none" stroke="#00984C" stroke-width="1.25" stroke-linecap="round" stroke-miterlimit="10" cx="37.056" cy="35.157" r="14.773"/>
<circle fill="none" stroke="#00984C" stroke-width="1.25" stroke-linecap="round" stroke-miterlimit="10" cx="37.056" cy="35.157" r="7.619"/>
<path fill="none" stroke="#00984C" stroke-width="1.25" stroke-linecap="round" stroke-miterlimit="10" d="M63.302,23.561
	c0.516,1.163,0.95,2.361,1.309,3.599l1.487-0.262l1.069,6.066l-1.492,0.264c0.042,0.634,0.07,1.272,0.07,1.917
	c0,0.645-0.028,1.283-0.07,1.917l1.492,0.263l-1.069,6.067l-1.487-0.263c-0.358,1.238-0.797,2.441-1.312,3.605l1.308,0.754
	l-3.08,5.335l-1.311-0.756c-0.757,1.034-1.592,2.022-2.479,2.944l0.978,1.164l-4.72,3.961l-0.969-1.155
	c-1.059,0.711-2.17,1.351-3.322,1.919l0.515,1.416l-5.788,2.107l-0.516-1.418c-1.231,0.303-2.491,0.527-3.779,0.664v1.51h-6.16
	v-1.51c-1.287-0.137-2.548-0.361-3.778-0.664l-0.516,1.418l-5.789-2.107l0.516-1.416c-1.153-0.568-2.264-1.208-3.323-1.919
	l-0.969,1.155l-4.719-3.961l0.975-1.162c-0.886-0.922-1.712-1.9-2.468-2.935l-1.31,0.757l-3.08-5.334l1.307-0.756
	c-0.515-1.162-0.953-2.367-1.312-3.604l-1.487,0.262l-1.069-6.065l1.492-0.265c-0.042-0.634-0.071-1.272-0.071-1.917
	c0-0.645,0.029-1.283,0.071-1.917l-1.492-0.263l1.069-6.067l1.487,0.263c0.359-1.239,0.797-2.442,1.312-3.606l-1.307-0.754
	l3.08-5.335l1.31,0.756c0.756-1.034,1.582-2.013,2.468-2.935l-0.975-1.162l4.719-3.959l0.969,1.155
	c1.059-0.712,2.17-1.352,3.323-1.919l-0.516-1.417l5.789-2.106l0.516,1.417c1.23-0.302,2.491-0.527,3.778-0.665v-1.51h6.16v1.51
	c1.288,0.138,2.548,0.363,3.779,0.665l0.516-1.417l5.788,2.106l-0.515,1.417c1.152,0.567,2.264,1.207,3.322,1.919l0.969-1.155
	l4.72,3.959l-0.976,1.162c0.886,0.922,1.711,1.901,2.469,2.935l1.31-0.756l3.08,5.335L63.302,23.561z"/>
</svg>
