<?xml version="1.0" encoding="utf-8"?>
<!-- Generator: Adobe Illustrator 16.0.0, SVG Export Plug-In . SVG Version: 6.00 Build 0)  -->
<!DOCTYPE svg PUBLIC "-//W3C//DTD SVG 1.0//EN" "http://www.w3.org/TR/2001/REC-SVG-20010904/DTD/svg10.dtd">
<svg version="1.0" xmlns="http://www.w3.org/2000/svg" xmlns:xlink="http://www.w3.org/1999/xlink" x="0px" y="0px" width="72px"
	 height="72px" viewBox="0 0 72 72" enable-background="new 0 0 72 72" xml:space="preserve">
<g id="Layer_1" display="none">
	
		<circle display="inline" fill="none" stroke="#00984C" stroke-width="1.25" stroke-linecap="round" stroke-miterlimit="10" cx="37.057" cy="35.157" r="18.808"/>
	
		<circle display="inline" fill="none" stroke="#00984C" stroke-width="1.25" stroke-linecap="round" stroke-miterlimit="10" cx="37.056" cy="35.157" r="14.773"/>
	
		<circle display="inline" fill="none" stroke="#00984C" stroke-width="1.25" stroke-linecap="round" stroke-miterlimit="10" cx="37.056" cy="35.157" r="7.619"/>
	<path display="inline" fill="none" stroke="#00984C" stroke-width="1.25" stroke-linecap="round" stroke-miterlimit="10" d="
		M63.302,23.561c0.516,1.163,0.95,2.361,1.309,3.599l1.487-0.262l1.069,6.066l-1.492,0.264c0.042,0.634,0.07,1.272,0.07,1.917
		c0,0.645-0.028,1.283-0.07,1.917l1.492,0.263l-1.069,6.067l-1.487-0.263c-0.358,1.238-0.797,2.441-1.312,3.605l1.308,0.754
		l-3.08,5.335l-1.311-0.756c-0.757,1.034-1.592,2.022-2.479,2.944l0.978,1.164l-4.72,3.961l-0.969-1.155
		c-1.059,0.711-2.17,1.351-3.322,1.919l0.515,1.416l-5.788,2.107l-0.516-1.418c-1.231,0.303-2.491,0.527-3.779,0.664v1.51h-6.16
		v-1.51c-1.287-0.137-2.548-0.361-3.778-0.664l-0.516,1.418l-5.789-2.107l0.516-1.416c-1.153-0.568-2.264-1.208-3.323-1.919
		l-0.969,1.155l-4.719-3.961l0.975-1.162c-0.886-0.922-1.712-1.9-2.468-2.935l-1.31,0.757l-3.08-5.334l1.307-0.756
		c-0.515-1.162-0.953-2.367-1.312-3.604l-1.487,0.262l-1.069-6.065l1.492-0.265c-0.042-0.634-0.071-1.272-0.071-1.917
		c0-0.645,0.029-1.283,0.071-1.917l-1.492-0.263l1.069-6.067l1.487,0.263c0.359-1.239,0.797-2.442,1.312-3.606l-1.307-0.754
		l3.08-5.335l1.31,0.756c0.756-1.034,1.582-2.013,2.468-2.935l-0.975-1.162l4.719-3.959l0.969,1.155
		c1.059-0.712,2.17-1.352,3.323-1.919l-0.516-1.417l5.789-2.106l0.516,1.417c1.23-0.302,2.491-0.527,3.778-0.665v-1.51h6.16v1.51
		c1.288,0.138,2.548,0.363,3.779,0.665l0.516-1.417l5.788,2.106l-0.515,1.417c1.152,0.567,2.264,1.207,3.322,1.919l0.969-1.155
		l4.72,3.959l-0.976,1.162c0.886,0.922,1.711,1.901,2.469,2.935l1.31-0.756l3.08,5.335L63.302,23.561z"/>
</g>
<g id="Layer_2">
	
		<line fill="none" stroke="#00984C" stroke-width="1.25" stroke-linecap="round" stroke-miterlimit="10" x1="16.945" y1="12.081" x2="19.695" y2="12.081"/>
	
		<line fill="none" stroke="#00984C" stroke-width="1.25" stroke-linecap="round" stroke-miterlimit="10" x1="53.69" y1="11.99" x2="56.44" y2="11.99"/>
	<path fill="none" stroke="#00984C" stroke-width="1.25" stroke-linecap="round" stroke-miterlimit="10" d="M62.515,64.714H11.051
		c-3.332,0-5.933-2.883-5.592-6.198l6.567-49.615c0.119-1.153,1.09-2.03,2.25-2.03h8.32c1.453,0,2.615,1.207,2.561,2.659
		l-0.621,12.176c-0.032,0.852,0.65,1.559,1.502,1.559h21.49c0.853,0,1.534-0.707,1.503-1.559L48.41,9.53
		c-0.055-1.452,1.107-2.659,2.561-2.659h8.321c1.159,0,2.131,0.877,2.249,2.03l6.566,49.615
		C68.45,61.831,65.848,64.714,62.515,64.714z"/>
	<path fill="none" stroke="#00984C" stroke-width="1.25" stroke-linecap="round" stroke-miterlimit="10" d="M25.157,9.246h2.532
		c1.453,0,2.615,1.032,2.561,2.274l-0.688,11.745"/>
	<path fill="none" stroke="#00984C" stroke-width="1.25" stroke-linecap="round" stroke-miterlimit="10" d="M48.424,9.246h-2.532
		c-1.453,0-2.615,1.032-2.561,2.274l0.688,11.745"/>
	<path fill="none" stroke="#00984C" stroke-width="1.25" stroke-linecap="round" stroke-miterlimit="10" d="M33,54.322h-5.636
		c-1.222,0-2.017-1.286-1.47-2.378l3.998-7.996"/>
	<path fill="none" stroke="#00984C" stroke-width="1.25" stroke-linecap="round" stroke-miterlimit="10" d="M36.163,54.322h10.074
		c1.223,0,2.018-1.286,1.47-2.378l-3.997-7.996"/>
	<path fill="none" stroke="#00984C" stroke-width="1.25" stroke-linecap="round" stroke-miterlimit="10" d="M31.27,41.191
		l4.043-8.086c0.605-1.211,2.334-1.211,2.94,0l3.838,7.677"/>
	<polyline fill="none" stroke="#00984C" stroke-width="1.25" stroke-linecap="round" stroke-miterlimit="10" points="38.426,57.027 
		35.72,54.321 38.426,51.617 	"/>
	<polyline fill="none" stroke="#00984C" stroke-width="1.25" stroke-linecap="round" stroke-miterlimit="10" points="43.579,37.667 
		42.501,41.34 38.83,40.263 	"/>
	<polyline fill="none" stroke="#00984C" stroke-width="1.25" stroke-linecap="round" stroke-miterlimit="10" points="26.262,45.16 
		29.891,43.948 31.104,47.577 	"/>
</g>
</svg>
