<?xml version="1.0" encoding="utf-8"?>
<!-- Generator: Adobe Illustrator 16.0.0, SVG Export Plug-In . SVG Version: 6.00 Build 0)  -->
<!DOCTYPE svg PUBLIC "-//W3C//DTD SVG 1.0//EN" "http://www.w3.org/TR/2001/REC-SVG-20010904/DTD/svg10.dtd">
<svg version="1.0" id="Layer_1" xmlns="http://www.w3.org/2000/svg" xmlns:xlink="http://www.w3.org/1999/xlink" x="0px" y="0px"
	 width="184px" height="49px" viewBox="0 0 184 49" enable-background="new 0 0 184 49" xml:space="preserve">
<path fill="#FFFFFF" d="M50.236,18.759l3.474,3.987l3.475-3.987v10.333h9.173v-3.404c0.134,0.904,0.521,1.685,1.179,2.326
	c0.836,0.807,1.875,1.21,3.124,1.21c1.482,0,2.845-0.448,4.083-1.349v1.217h8.387v-9.006c0-2.507-0.677-4.369-2.035-5.586
	c-1.358-1.218-3.465-1.822-6.322-1.822c-3.005,0-5.304,0.64-7.674,1.933v4.891c1.61-0.865,2.799-1.298,4.335-1.298
	c1.041,0,1.851,0.212,2.434,0.636c0.585,0.423,0.875,1.015,0.875,1.773c-0.931-0.255-1.888-0.379-2.863-0.379
	c-1.663,0-3.012,0.439-4.042,1.317c-0.83,0.708-1.321,1.588-1.481,2.634V8.459h-8.889l-3.759,4.296l-3.744-4.296h-8.902v20.633
	h9.172V18.759z M72.154,23.355c0.308-0.26,0.714-0.39,1.219-0.39c0.407,0,0.865,0.088,1.371,0.257v2.271
	c-0.353,0.296-0.788,0.444-1.301,0.444c-0.508,0-0.926-0.148-1.256-0.444c-0.329-0.295-0.493-0.67-0.493-1.11
	C71.694,23.959,71.845,23.617,72.154,23.355"/>
<path fill="#FFFFFF" d="M92.416,26.841c0.202,0.429,0.468,0.823,0.83,1.173c0.829,0.807,1.871,1.21,3.119,1.21
	c1.486,0,2.844-0.448,4.085-1.349v1.217h8.386v-9.006c0-2.507-0.68-4.369-2.036-5.586c-1.359-1.218-3.464-1.822-6.324-1.822
	c-3.003,0-4.938,0.64-7.306,1.933v4.891c1.608-0.865,2.431-1.298,3.969-1.298c1.04,0,1.854,0.212,2.436,0.636
	c0.583,0.423,0.875,1.015,0.875,1.773c-0.931-0.255-1.887-0.379-2.865-0.379c-1.663,0-3.01,0.439-4.042,1.317
	c-0.497,0.423-0.871,0.91-1.127,1.455V8.459h-8.388v20.633h8.388V26.841z M97.857,23.355c0.307-0.26,0.714-0.39,1.221-0.39
	c0.406,0,0.863,0.088,1.371,0.257v2.271c-0.353,0.296-0.788,0.444-1.303,0.444c-0.508,0-0.925-0.148-1.255-0.444
	c-0.331-0.295-0.496-0.67-0.496-1.11C97.396,23.959,97.549,23.617,97.857,23.355"/>
<path fill="#FFFFFF" d="M170.57,12.812l-1.884,4.339l-1.969-4.339h-8.345l1.407,3.16c-0.167-0.218-0.348-0.423-0.538-0.623
	c-0.805-0.838-1.76-1.472-2.861-1.906c-1.109-0.43-2.304-0.646-3.6-0.646c-2.528,0-4.592,0.768-6.176,2.311
	c-1.588,1.539-2.383,3.533-2.383,5.976c0,0.212,0.014,0.414,0.027,0.62c-0.086-0.135-0.156-0.281-0.253-0.408
	c-0.449-0.628-0.999-1.191-1.652-1.697c1.113-0.803,1.927-1.717,2.442-2.747c0.517-1.025,0.851-2.373,1.002-4.04h-8.304
	c-0.056,2.83-1.112,4.626-3.173,5.392V8.459h-8.384v5.811c-0.122-0.165-0.247-0.334-0.401-0.485
	c-0.729-0.74-1.663-1.108-2.792-1.108c-2.028,0-3.575,1.233-4.639,3.704v-3.57h-8.385v16.28h8.385v-6.069
	c0-1.916,0.415-3.222,1.245-3.926c0.943,0.993,2.072,1.489,3.394,1.489c1.157,0,2.097-0.367,2.813-1.105
	c0.146-0.144,0.262-0.305,0.38-0.472v10.083h8.384v-8.006c1.093,0.433,1.898,1.249,2.407,2.448c0.511,1.199,0.766,3.051,0.766,5.558
	h8.304c0-1.268-0.034-2.287-0.112-3.071c0.327,0.455,0.704,0.88,1.137,1.275c1.728,1.571,4.013,2.358,6.85,2.358
	c3.448,0,6.091-1.197,7.924-3.599v-2.851c-1.138,1.179-2.648,1.774-4.53,1.774c-0.931,0-1.758-0.236-2.482-0.706
	c-0.725-0.468-1.241-1.117-1.545-1.945h8.557c0-1.074-0.092-2.03-0.266-2.887l2.804,6.295L160.76,33.4h9.117l8.836-20.589H170.57z
	 M152.524,19.471c0-0.847,0.188-1.488,0.569-1.927c0.381-0.435,0.831-0.654,1.342-0.654c0.592,0,1.067,0.229,1.434,0.68
	c0.365,0.457,0.564,1.093,0.604,1.901H152.524z"/>
<path fill="#00984C" d="M50.292,38.009c-0.115-1.259-0.641-2.191-1.489-2.519c1.032-0.38,1.52-1.485,1.52-2.532
	c0-1.912-1.537-2.884-3.313-2.884h-5.946v10.099h3.125v-3.522h1.658c1.234,0,1.323,1.004,1.408,1.965
	c0.042,0.526,0.096,1.049,0.256,1.557h3.122C50.349,39.706,50.333,38.504,50.292,38.009 M45.819,34.488h-1.63v-2.011h1.459
	c1.192,0,1.548,0.371,1.548,1.004C47.196,34.387,46.402,34.488,45.819,34.488"/>
<path fill="#00984C" d="M54.96,32.648c-2.771,0-4.018,1.81-4.018,3.848c0,2.037,1.247,3.861,4.018,3.861
	c2.77,0,4.019-1.824,4.019-3.861C58.979,34.458,57.73,32.648,54.96,32.648 M54.96,38.32c-1.065,0-1.208-1.049-1.208-1.824
	c0-0.779,0.143-1.811,1.208-1.811c1.064,0,1.208,1.032,1.208,1.811C56.168,37.271,56.024,38.32,54.96,38.32"/>
<path fill="#00984C" d="M63.052,32.648c-2.77,0-4.018,1.81-4.018,3.848c0,2.037,1.248,3.861,4.018,3.861
	c2.768,0,4.019-1.824,4.019-3.861C67.071,34.458,65.82,32.648,63.052,32.648 M63.052,38.32c-1.064,0-1.208-1.049-1.208-1.824
	c0-0.779,0.144-1.811,1.208-1.811s1.205,1.032,1.205,1.811C64.257,37.271,64.116,38.32,63.052,38.32"/>
<path fill="#00984C" d="M71.836,31.952c0.226,0,0.451,0.073,0.68,0.102V30.13c-0.426-0.015-0.837-0.06-1.263-0.06
	c-1.137,0-1.846,0.088-2.455,0.696c-0.541,0.538-0.612,1.342-0.582,2.067h-1.152v1.725h1.152v5.615h2.809v-5.615h1.422v-1.725H70.97
	C70.928,32.153,71.157,31.952,71.836,31.952"/>
<rect x="73.328" y="30.07" fill="#00984C" width="2.81" height="1.971"/>
<rect x="73.328" y="32.832" fill="#00984C" width="2.81" height="7.34"/>
<path fill="#00984C" d="M82.312,32.648c-1.123,0-1.874,0.381-2.402,1.116h-0.026v-0.932h-2.711v7.34h2.81v-3.878
	c0-1.172,0.639-1.412,1.123-1.412c0.822,0,0.923,0.592,0.923,1.444v3.846h2.809v-5.037C84.837,33.456,83.63,32.648,82.312,32.648"/>
<path fill="#00984C" d="M89.679,41.08c-0.355,0-0.653-0.284-0.825-0.537c-0.056-0.085-0.127-0.185-0.155-0.255h-2.784
	c0.257,1.978,2.1,2.446,3.848,2.446c3.452,0,3.833-2.051,3.833-3.507v-6.393h-2.811v0.89h-0.028
	c-0.328-0.751-1.108-1.075-1.933-1.075c-2.099,0-3.195,1.599-3.195,3.507c0,1.965,0.981,3.579,3.154,3.579
	c0.837,0,1.518-0.367,1.974-1.02h0.028v0.678C90.785,40.002,90.585,41.08,89.679,41.08 M89.707,37.938
	c-1.008,0-1.264-0.963-1.264-1.796c0-0.779,0.397-1.457,1.193-1.457c0.823,0,1.22,0.637,1.22,1.441
	C90.855,36.947,90.742,37.938,89.707,37.938"/>
<path fill="#00984C" d="M107.618,33.526c0-1.446-0.965-3.453-3.717-3.453h-5.226v10.099h3.124v-3.054h1.846
	C105.97,37.119,107.618,35.973,107.618,33.526 M103.004,34.711h-1.205v-2.05h1.391c0.767,0,1.474,0.057,1.474,0.976
	C104.664,34.655,103.816,34.711,103.004,34.711"/>
<path fill="#00984C" d="M110.5,34.005h-0.028v-1.172h-2.697v7.339h2.808v-2.901c0-1.571,0.597-2.22,1.706-2.22
	c0.565,0,0.822,0.084,1.106,0.187v-2.478c-0.268-0.071-0.541-0.112-0.824-0.112C111.551,32.648,110.951,33.127,110.5,34.005"/>
<path fill="#00984C" d="M117.527,32.648c-2.768,0-4.019,1.81-4.019,3.848c0,2.037,1.251,3.861,4.019,3.861s4.016-1.824,4.016-3.861
	C121.543,34.458,120.295,32.648,117.527,32.648 M117.527,38.32c-1.067,0-1.21-1.049-1.21-1.824c0-0.779,0.143-1.811,1.21-1.811
	c1.064,0,1.207,1.032,1.207,1.811C118.734,37.271,118.591,38.32,117.527,38.32"/>
<path fill="#00984C" d="M129.578,40.172V30.07h-2.815v3.567h-0.026c-0.425-0.623-1.178-0.989-2.017-0.989
	c-2.468,0-3.135,2.093-3.135,3.818c0,1.841,1.007,3.891,3.094,3.891c1.378,0,1.802-0.524,2.161-0.99h0.026v0.805H129.578z
	 M125.632,38.32c-1.01,0-1.236-0.947-1.236-1.824c0-0.863,0.226-1.811,1.236-1.811c1.007,0,1.234,0.948,1.234,1.811
	C126.866,37.373,126.639,38.32,125.632,38.32"/>
<path fill="#00984C" d="M135.468,39.242h0.026v0.93h2.716v-7.339h-2.815v3.875c0,1.17-0.635,1.412-1.118,1.412
	c-0.824,0-0.925-0.592-0.925-1.44v-3.847h-2.813v5.032c0,1.686,1.209,2.492,2.528,2.492
	C134.19,40.357,134.944,39.977,135.468,39.242"/>
<path fill="#00984C" d="M142.905,38.32c-1.08,0-1.236-0.921-1.236-1.809c0-0.893,0.156-1.826,1.236-1.826
	c0.298,0,0.538,0.084,0.708,0.24c0.185,0.155,0.283,0.397,0.315,0.693h2.666c-0.166-2.025-1.818-2.97-3.746-2.97
	c-2.215,0-3.99,1.542-3.99,3.863c0,2.319,1.775,3.846,3.99,3.846c0.992,0,1.89-0.282,2.554-0.806
	c0.683-0.538,1.153-1.317,1.28-2.306h-2.687C143.941,37.824,143.515,38.32,142.905,38.32"/>
<path fill="#00984C" d="M150.656,30.595h-2.816v2.238h-1.246v1.725h1.246v3.508c0,2.009,1.324,2.194,2.518,2.194
	c0.594,0,1.236-0.088,1.802-0.088V38.05c-0.211,0.031-0.427,0.042-0.639,0.042c-0.709,0-0.865-0.294-0.865-0.974v-2.56h1.504v-1.725
	h-1.504V30.595z"/>
<path fill="#00984C" d="M158.307,35.717c-0.937-0.313-2.004-0.367-2.472-0.566c-0.152-0.071-0.33-0.17-0.33-0.382
	c0-0.48,0.46-0.566,0.858-0.566c0.228,0,0.453,0.07,0.62,0.213c0.185,0.127,0.316,0.314,0.327,0.553h2.557
	c-0.07-1.887-1.986-2.32-3.577-2.32c-1.478,0-3.476,0.479-3.476,2.332c0,1.26,0.865,1.938,3.006,2.303
	c1.308,0.232,1.55,0.356,1.55,0.782c0,0.423-0.582,0.564-0.953,0.564c-0.343,0-0.61-0.086-0.753-0.211
	c-0.212-0.185-0.327-0.398-0.339-0.653h-2.682c0.038,1.898,1.941,2.59,3.675,2.59c1.789,0,3.749-0.55,3.749-2.59
	C160.066,36.567,159.24,36.015,158.307,35.717"/>
<path fill="#00984C" d="M30.216,21.488c0,0,5.138-0.997,5.159-5.649c0.01-2.013-1.243-3.889-3.196-4.517
	c-1.023-0.332-2.167-0.451-3.206-0.127c-0.063,0.018-0.937,0.273-0.939,0.273c-0.025,0-0.307-0.642-0.334-0.694
	c-0.635-1.181-1.374-2.398-2.613-3.024c-0.82-0.413-1.757-0.668-2.679-0.612c-1.375,0.081-2.848,0.62-3.747,1.708
	c-0.392,0.474-0.714,1.103-0.888,1.695c-0.81,2.736,0.32,5.355,0.32,5.355s-1.581-1.84-2.529-2.364
	c-1.442-0.796-3.264-1.135-4.873-0.77c-1.655,0.377-3.157,2.116-3.041,3.853c0.025,0.376,0.106,0.758,0.241,1.108
	c0.063,0.161,0.134,0.315,0.228,0.461c0.037,0.056,0.247,0.371,0.365,0.476c-2.007,0.476-3.167,2.386-2.97,4.408
	c0.388,3.914,4.56,5.572,8.04,5.525c1.43-0.021,2.932-0.169,4.332-0.47c0.251-0.051,0.66-0.195,0.733-0.195
	c-1.159,3.05-2.291,4.821-5.373,6.886c0.18,0.519,0.782,1.245,1.334,1.53c2.531-2.032,4.251-4.815,5.453-8.252
	c0.049,0.122,3.624,9.608,9.587,9.325c1.651-0.078,3.237-1.086,3.939-2.588c0.191-0.406,0.328-0.867,0.393-1.311
	c0.068-0.475,0.047-0.955,0.006-1.433c-0.008-0.086-0.047-0.849-0.065-1.015c1.27-0.32,2.397-1.319,2.852-2.573
	c0.977-2.698-0.258-4.932-2.53-6.077C32.97,21.793,30.216,21.488,30.216,21.488"/>
<path fill="#FFFFFF" d="M162.478,35.89c0.122-0.279,0.289-0.519,0.499-0.725c0.21-0.203,0.456-0.364,0.738-0.48
	c0.278-0.117,0.575-0.175,0.891-0.175c0.314,0,0.611,0.058,0.89,0.175c0.277,0.116,0.521,0.277,0.73,0.48
	c0.208,0.206,0.374,0.446,0.496,0.725c0.124,0.277,0.185,0.578,0.185,0.902c0,0.33-0.061,0.637-0.185,0.918
	c-0.122,0.278-0.288,0.522-0.496,0.729c-0.209,0.206-0.453,0.367-0.73,0.482c-0.279,0.114-0.576,0.17-0.89,0.17
	c-0.316,0-0.613-0.056-0.891-0.17c-0.282-0.115-0.528-0.276-0.738-0.482c-0.21-0.207-0.377-0.451-0.499-0.729
	c-0.122-0.281-0.185-0.588-0.185-0.918C162.293,36.468,162.356,36.167,162.478,35.89 M162.855,37.573
	c0.096,0.24,0.229,0.448,0.399,0.623c0.169,0.176,0.37,0.314,0.601,0.413c0.231,0.102,0.481,0.152,0.751,0.152
	c0.266,0,0.513-0.05,0.743-0.152c0.228-0.099,0.428-0.237,0.597-0.413c0.17-0.175,0.304-0.383,0.399-0.623
	c0.096-0.239,0.145-0.5,0.145-0.781c0-0.275-0.049-0.53-0.145-0.767c-0.095-0.237-0.229-0.443-0.399-0.617
	c-0.169-0.172-0.369-0.31-0.597-0.412c-0.23-0.099-0.477-0.149-0.743-0.149c-0.27,0-0.52,0.05-0.751,0.149
	c-0.231,0.102-0.432,0.24-0.601,0.412c-0.17,0.174-0.303,0.38-0.399,0.617c-0.095,0.237-0.144,0.492-0.144,0.767
	C162.711,37.073,162.76,37.333,162.855,37.573 M164.747,35.459c0.319,0,0.555,0.064,0.709,0.191c0.154,0.127,0.23,0.319,0.23,0.576
	c0,0.241-0.067,0.418-0.202,0.531c-0.135,0.112-0.304,0.179-0.504,0.199l0.767,1.185H165.3l-0.73-1.155h-0.443v1.155h-0.416v-2.682
	H164.747z M164.563,36.649c0.094,0,0.183-0.002,0.267-0.009c0.084-0.006,0.158-0.024,0.224-0.052
	c0.065-0.028,0.117-0.073,0.156-0.133c0.039-0.057,0.06-0.141,0.06-0.248c0-0.089-0.019-0.161-0.054-0.213
	c-0.035-0.053-0.079-0.095-0.135-0.124c-0.054-0.028-0.118-0.048-0.189-0.059c-0.073-0.009-0.144-0.015-0.212-0.015h-0.553v0.853
	H164.563z"/>
<line fill="none" x1="84" y1="817" x2="84" y2="-17"/>
<line fill="none" x1="84" y1="817" x2="84" y2="-17"/>
<g>
	<defs>
		<rect id="SVGID_1_" x="84" y="-17" width="1112" height="834"/>
	</defs>
	<clipPath id="SVGID_2_">
		<use xlink:href="#SVGID_1_"  overflow="visible"/>
	</clipPath>
	
		<line clip-path="url(#SVGID_2_)" fill="none" stroke="#00984C" stroke-width="2" stroke-miterlimit="10" x1="178.777" y1="503.786" x2="263.138" y2="503.786"/>
	
		<line clip-path="url(#SVGID_2_)" fill="none" stroke="#00984C" stroke-width="1.25" stroke-miterlimit="10" x1="981.037" y1="277.973" x2="981.037" y2="270.865"/>
	
		<polyline clip-path="url(#SVGID_2_)" fill="none" stroke="#00984C" stroke-width="1.25" stroke-linecap="round" stroke-miterlimit="10" points="
		976.573,262.804 981.036,246.202 987.656,270.826 974.418,270.826 975.258,267.698 	"/>
	
		<line clip-path="url(#SVGID_2_)" fill="none" stroke="#00984C" stroke-width="1.25" stroke-miterlimit="10" x1="957.792" y1="277.973" x2="957.792" y2="270.865"/>
	
		<polyline clip-path="url(#SVGID_2_)" fill="none" stroke="#00984C" stroke-width="1.25" stroke-linecap="round" stroke-miterlimit="10" points="
		963.571,267.702 964.411,270.826 951.172,270.826 957.791,246.203 962.256,262.806 	"/>
	
		<line clip-path="url(#SVGID_2_)" fill="none" stroke="#00984C" stroke-width="1.25" stroke-miterlimit="10" x1="969.414" y1="277.973" x2="969.414" y2="267.698"/>
	
		<polygon clip-path="url(#SVGID_2_)" fill="none" stroke="#00984C" stroke-width="1.25" stroke-linecap="round" stroke-miterlimit="10" points="
		977.89,267.698 960.939,267.698 969.414,236.173 	"/>
	
		<path clip-path="url(#SVGID_2_)" fill="none" stroke="#00984C" stroke-width="1.25" stroke-linecap="round" stroke-linejoin="bevel" d="
		M964.497,288.979c-14.647-2.354-25.837-15.052-25.837-30.363c0-16.985,13.77-30.754,30.754-30.754"/>
	<polygon clip-path="url(#SVGID_2_)" fill="#00984C" points="961.447,283.077 960.432,283.808 964.041,288.805 958.793,292.039 
		959.451,293.103 965.841,289.163 	"/>
	
		<path clip-path="url(#SVGID_2_)" fill="none" stroke="#00984C" stroke-width="1.25" stroke-linecap="round" stroke-linejoin="bevel" d="
		M978.114,229.109c12.748,3.753,22.054,15.543,22.054,29.506c0,15.782-11.887,28.787-27.196,30.551"/>
	<polygon clip-path="url(#SVGID_2_)" fill="#00984C" points="980.411,235.34 981.509,234.741 978.547,229.335 984.155,226.776 
		983.634,225.639 976.805,228.756 	"/>
</g>
</svg>
